{"asset":{"version":"2.0","generator":"Blockbench 4.9.4 glTF exporter"},"scenes":[{"nodes":[2],"name":"blockbench_export"}],"scene":0,"nodes":[{"name":"cuboid","mesh":0},{"name":"sphere","mesh":1},{"children":[0,1]}],"bufferViews":[{"buffer":0,"byteOffset":0,"byteLength":4152,"target":34962,"byteStride":12},{"buffer":0,"byteOffset":4152,"byteLength":4152,"target":34962,"byteStride":12},{"buffer":0,"byteOffset":8304,"byteLength":2768,"target":34962,"byteStride":8},{"buffer":0,"byteOffset":11072,"byteLength":960,"target":34963},{"buffer":0,"byteOffset":12032,"byteLength":3168,"target":34962,"byteStride":12},{"buffer":0,"byteOffset":15200,"byteLength":3168,"target":34962,"byteStride":12},{"buffer":0,"byteOffset":18368,"byteLength":2112,"target":34962,"byteStride":8},{"buffer":0,"byteOffset":20480,"byteLength":720,"target":34963}],"buffers":[{"byteLength":21200,"uri":"data:application/octet-stream;base64,"}],"accessors":[{"bufferView":0,"componentType":5126,"count":346,"max":[0.14523020386695862,0.53125,0.10775194317102432],"min":[-0.12943728268146515,0,-0.08620301634073257],"type":"VEC3"},{"bufferView":1,"componentType":5126,"count":346,"max":[0.9672337770462036,0.9480909109115601,0.9735954403877258],"min":[-0.9794042110443115,-1,-0.9665558338165283],"type":"VEC3"},{"bufferView":2,"componentType":5126,"count":346,"max":[0.5716116428375244,0.6015625],"min":[0,0],"type":"VEC2"},{"bufferView":3,"componentType":5123,"count":480,"max":[345],"min":[0],"type":"SCALAR"},{"bufferView":4,"componentType":5126,"count":264,"max":[0.20000000298023224,0.706250011920929,0.1875],"min":[-0.17499999701976776,0.33125001192092896,-0.1875],"type":"VEC3"},{"bufferView":5,"componentType":5126,"count":264,"max":[0.9659258127212524,0.9659258127212524,0.9659258127212524],"min":[-0.9659258127212524,-0.9659258127212524,-0.9659258127212524],"type":"VEC3"},{"bufferView":6,"componentType":5126,"count":264,"max":[0.6722378134727478,0.538227915763855],"min":[0.01538783684372902,0],"type":"VEC2"},{"bufferView":7,"componentType":5123,"count":360,"max":[263],"min":[0],"type":"SCALAR"}],"materials":[{"pbrMetallicRoughness":{"metallicFactor":0,"roughnessFactor":1,"baseColorTexture":{"index":0}},"alphaMode":"MASK","alphaCutoff":0.05,"doubleSided":true},{"pbrMetallicRoughness":{"metallicFactor":0,"roughnessFactor":1,"baseColorTexture":{"index":1}},"alphaMode":"MASK","alphaCutoff":0.05,"doubleSided":true}],"textures":[{"sampler":0,"source":0},{"sampler":1,"source":1}],"samplers":[{"magFilter":9728,"minFilter":9728,"wrapS":33071,"wrapT":33071},{"magFilter":9728,"minFilter":9728,"wrapS":33071,"wrapT":33071}],"images":[{"mimeType":"image/png","uri":"data:image/png;base64,"},{"mimeType":"image/png","uri":"data:image/png;base64,"}],"meshes":[{"primitives":[{"mode":4,"attributes":{"POSITION":0,"NORMAL":1,"TEXCOORD_0":2},"indices":3,"material":0}]},{"primitives":[{"mode":4,"attributes":{"POSITION":4,"NORMAL":5,"TEXCOORD_0":6},"indices":7,"material":1}]}]}