{"asset":{"version":"2.0","generator":"Blockbench 4.9.4 glTF exporter"},"scenes":[{"nodes":[1],"name":"blockbench_export"}],"scene":0,"nodes":[{"name":"cuboid","mesh":0},{"children":[0]}],"bufferViews":[{"buffer":0,"byteOffset":0,"byteLength":4152,"target":34962,"byteStride":12},{"buffer":0,"byteOffset":4152,"byteLength":4152,"target":34962,"byteStride":12},{"buffer":0,"byteOffset":8304,"byteLength":2768,"target":34962,"byteStride":8},{"buffer":0,"byteOffset":11072,"byteLength":960,"target":34963}],"buffers":[{"byteLength":12032,"uri":"data:application/octet-stream;base64,"}],"accessors":[{"bufferView":0,"componentType":5126,"count":346,"max":[0.14523020386695862,0.53125,0.10775194317102432],"min":[-0.12943728268146515,0,-0.08620301634073257],"type":"VEC3"},{"bufferView":1,"componentType":5126,"count":346,"max":[0.9672337770462036,0.9480909109115601,0.9735954403877258],"min":[-0.9794042110443115,-1,-0.9665558338165283],"type":"VEC3"},{"bufferView":2,"componentType":5126,"count":346,"max":[0.5716116428375244,0.6015625],"min":[0,0],"type":"VEC2"},{"bufferView":3,"componentType":5123,"count":480,"max":[345],"min":[0],"type":"SCALAR"}],"materials":[{"pbrMetallicRoughness":{"metallicFactor":0,"roughnessFactor":1,"baseColorTexture":{"index":0}},"alphaMode":"MASK","alphaCutoff":0.05,"doubleSided":true}],"textures":[{"sampler":0,"source":0}],"samplers":[{"magFilter":9728,"minFilter":9728,"wrapS":33071,"wrapT":33071}],"images":[{"mimeType":"image/png","uri":"data:image/png;base64,"}],"meshes":[{"primitives":[{"mode":4,"attributes":{"POSITION":0,"NORMAL":1,"TEXCOORD_0":2},"indices":3,"material":0}]}]}